<svg width="20" height="20" viewBox="0 0 20 20" fill="none" xmlns="http://www.w3.org/2000/svg">
<path d="M15.8334 7.5C15.8334 7.96024 15.4603 8.33334 15.0001 8.33334C14.5398 8.33334 14.1667 7.96024 14.1667 7.5V5.83334H12.5001C12.0398 5.83334 11.6667 5.46024 11.6667 5.00001C11.6667 4.53977 12.0398 4.16667 12.5001 4.16667H14.1667V2.50001C14.1667 2.03977 14.5398 1.66667 15.0001 1.66667C15.4603 1.66667 15.8334 2.03977 15.8334 2.50001V4.16667H17.5001C17.9603 4.16667 18.3334 4.53977 18.3334 5.00001C18.3334 5.46024 17.9603 5.83334 17.5001 5.83334H15.8334V7.5Z" fill="white"/>
<path d="M17.5 10H15.8333V12.5H6.945C6.58423 12.499 6.23304 12.6161 5.945 12.8333L4.16667 14.1667V4.16667H10V2.5H4.16667C3.72464 2.5 3.30072 2.67559 2.98816 2.98816C2.67559 3.30072 2.5 3.72464 2.5 4.16667V17.5L6.5 14.5C6.78833 14.2833 7.13917 14.1667 7.5 14.1667H15.8333C16.2754 14.1667 16.6993 13.9911 17.0118 13.6785C17.3244 13.3659 17.5 12.942 17.5 12.5V10Z" fill="white"/>
</svg>
