<svg width="24" height="24" viewBox="0 0 24 24" fill="none" xmlns="http://www.w3.org/2000/svg">
<rect x="5" y="10" width="13" height="10" fill="white"/>
<path d="M2.09973 14.1936H4.29976V21.8992C4.29976 22.1912 4.41565 22.4711 4.62194 22.6776C4.82824 22.884 5.10803 23 5.39977 23H18.6C18.8917 23 19.1715 22.884 19.3778 22.6776C19.5841 22.4711 19.7 22.1912 19.7 21.8992V14.1936H21.9C22.1126 14.1938 22.3207 14.1322 22.4989 14.0163C22.6772 13.9005 22.818 13.7353 22.9043 13.5408C22.9912 13.3465 23.0197 13.1311 22.9865 12.9208C22.9533 12.7105 22.8598 12.5145 22.7173 12.3564L12.8172 1.3484C12.4003 0.883866 11.5995 0.883866 11.1826 1.3484L1.28242 12.3564C1.14017 12.5145 1.04678 12.7105 1.01353 12.9207C0.980285 13.1308 1.00861 13.3461 1.09508 13.5405C1.18155 13.7349 1.32246 13.9 1.50076 14.0159C1.67906 14.1318 1.88711 14.1936 2.09973 14.1936V14.1936ZM8.64372 13.8458C8.67782 13.9503 9.53803 16.3952 11.9999 16.3952C14.4958 16.3952 15.3461 13.8777 15.3549 13.8513L17.4449 14.5349C17.391 14.7011 16.0732 18.5968 11.9999 18.5968C7.92651 18.5968 6.60869 14.7011 6.55479 14.536L8.64372 13.8458Z" fill="url(#paint0_linear_1184_29762)"/>
<path d="M4 4.5C4 3.67157 4.67157 3 5.5 3V3C6.32843 3 7 3.67157 7 4.5V11H4V4.5Z" fill="#FE7C5D"/>
<defs>
<linearGradient id="paint0_linear_1184_29762" x1="12" y1="14.1936" x2="3.18809" y2="46.664" gradientUnits="userSpaceOnUse">
<stop stop-color="#FD7B5C"/>
<stop offset="1" stop-color="#111315"/>
</linearGradient>
</defs>
</svg>
