<svg width="24" height="24" viewBox="0 0 24 24" fill="none" xmlns="http://www.w3.org/2000/svg">
<path d="M2.58549 1.57922C2.45994 1.51643 2.31929 1.49013 2.17953 1.50332C2.03977 1.51651 1.90653 1.56866 1.79494 1.65383C1.68335 1.739 1.59791 1.85378 1.54833 1.98511C1.49876 2.11645 1.48703 2.25906 1.51449 2.39672L3.61899 9.67172C3.65823 9.80729 3.73493 9.92904 3.84027 10.023C3.94562 10.1169 4.07532 10.1792 4.21449 10.2027L12.7495 11.6322C13.1515 11.7117 13.1515 12.2877 12.7495 12.3672L4.21449 13.7967C4.07532 13.8202 3.94562 13.8825 3.84027 13.9765C3.73493 14.0704 3.65823 14.1921 3.61899 14.3277L1.51449 21.6027C1.48703 21.7404 1.49876 21.883 1.54833 22.0143C1.59791 22.1457 1.68335 22.2604 1.79494 22.3456C1.90653 22.4308 2.03977 22.4829 2.17953 22.4961C2.31929 22.5093 2.45994 22.483 2.58549 22.4202L22.0855 12.6702C22.2099 12.6079 22.3145 12.5121 22.3876 12.3937C22.4607 12.2753 22.4994 12.1389 22.4994 11.9997C22.4994 11.8606 22.4607 11.7241 22.3876 11.6057C22.3145 11.4873 22.2099 11.3916 22.0855 11.3292L2.58549 1.57922Z" fill="#FD7B5C"/>
</svg>
