<svg width="24" height="24" viewBox="0 0 24 24" fill="none" xmlns="http://www.w3.org/2000/svg">
<path d="M9.28987 21C8.46369 20.996 7.64656 20.8277 6.88602 20.505C6.12548 20.1822 5.43674 19.7114 4.85987 19.12C4.28734 18.5773 3.82743 17.9271 3.50646 17.2065C3.18548 16.486 3.00975 15.7092 2.98932 14.9206C2.96888 14.132 3.10415 13.3472 3.38737 12.6109C3.67059 11.8747 4.09621 11.2015 4.63987 10.63L11.9999 3.19997C12.3929 2.80765 12.8614 2.49905 13.377 2.2928C13.8926 2.08655 14.4447 1.98694 14.9999 1.99997C15.5946 2.002 16.1829 2.12241 16.7306 2.35419C17.2783 2.58597 17.7744 2.92448 18.1899 3.34997C19.0169 4.14621 19.4965 5.23649 19.5245 6.38415C19.5526 7.53181 19.1269 8.64424 18.3399 9.47997L10.9399 16.91C10.7029 17.1486 10.4208 17.3378 10.1101 17.4665C9.79939 17.5953 9.4662 17.661 9.12987 17.66C8.76655 17.6605 8.40681 17.5881 8.07189 17.4473C7.73698 17.3065 7.43367 17.1 7.17987 16.84C6.6726 16.3488 6.37965 15.6773 6.36467 14.9714C6.34969 14.2655 6.61389 13.5822 7.09987 13.07L13.9299 6.20997C14.1243 6.08088 14.3577 6.02382 14.5897 6.04869C14.8217 6.07355 15.0377 6.17878 15.2003 6.34613C15.3629 6.51349 15.4619 6.73244 15.4801 6.96508C15.4983 7.19772 15.4345 7.42939 15.2999 7.61997L8.46987 14.48C8.35598 14.6172 8.30055 14.7936 8.31551 14.9713C8.33047 15.149 8.41464 15.3137 8.54987 15.43C8.69059 15.5717 8.88028 15.654 9.07987 15.66C9.15381 15.661 9.22722 15.6474 9.29588 15.62C9.36453 15.5925 9.42706 15.5517 9.47987 15.5L16.8699 8.06997C17.2847 7.60915 17.5015 7.0036 17.4734 6.38422C17.4454 5.76484 17.1747 5.18138 16.7199 4.75997C16.2975 4.32141 15.723 4.06143 15.1148 4.03353C14.5065 4.00563 13.9107 4.21193 13.4499 4.60997L6.05987 12C5.70052 12.3859 5.42103 12.8392 5.2375 13.3336C5.05397 13.828 4.97001 14.3538 4.99046 14.8807C5.0109 15.4077 5.13535 15.9254 5.35664 16.4041C5.57793 16.8828 5.89169 17.313 6.27987 17.67C6.66915 18.0735 7.13494 18.3954 7.65004 18.6169C8.16513 18.8384 8.7192 18.955 9.27987 18.96C9.76329 18.9639 10.2427 18.8723 10.6906 18.6904C11.1385 18.5085 11.5461 18.2399 11.8899 17.9L19.2799 10.47C19.3725 10.3767 19.4825 10.3026 19.6037 10.2519C19.7249 10.2012 19.8549 10.1749 19.9863 10.1744C20.1177 10.174 20.2479 10.1994 20.3695 10.2492C20.4911 10.2991 20.6016 10.3724 20.6949 10.465C20.7881 10.5576 20.8622 10.6676 20.9129 10.7888C20.9636 10.91 20.99 11.04 20.9904 11.1714C20.9909 11.3028 20.9655 11.433 20.9156 11.5546C20.8658 11.6762 20.7925 11.7867 20.6999 11.88L13.3099 19.31C12.7852 19.8439 12.1596 20.2683 11.4695 20.5584C10.7794 20.8486 10.0385 20.9986 9.28987 21Z" fill="#88898A"/>
</svg>
